<?xml version="1.0" standalone="no"?>
<!DOCTYPE svg PUBLIC "-//W3C//DTD SVG 20010904//EN"
 "http://www.w3.org/TR/2001/REC-SVG-20010904/DTD/svg10.dtd">
<svg version="1.0" xmlns="http://www.w3.org/2000/svg"
 width="190.000000pt" height="190.000000pt" viewBox="0 0 190.000000 190.000000"
 preserveAspectRatio="xMidYMid meet">
<metadata>
Created by potrace 1.11, written by Peter Selinger 2001-2013
</metadata>
<g transform="translate(0.000000,190.000000) scale(0.100000,-0.100000)"
fill="#000000" stroke="none">
<path d="M865 1839 c-98 -14 -210 -76 -289 -159 -223 -237 -254 -642 -76
-1000 23 -46 26 -65 23 -115 -5 -78 16 -116 82 -140 45 -18 48 -18 93 1 77 32
109 121 67 191 -22 38 -50 56 -100 62 -38 6 -42 10 -72 71 -75 152 -109 362
-84 520 45 285 205 452 436 454 65 1 88 -3 123 -22 62 -33 117 -86 156 -151
37 -61 86 -194 86 -234 0 -22 8 -28 60 -45 l60 -21 0 38 c0 21 -9 73 -20 116
-75 294 -295 469 -545 434z"/>
<path d="M764 1276 c-91 -41 -105 -158 -27 -226 33 -30 41 -32 91 -28 48 4 60
10 90 43 l35 38 96 -6 c166 -10 302 -56 448 -153 106 -70 184 -157 236 -263
40 -81 42 -88 42 -180 0 -82 -4 -103 -25 -146 -31 -64 -101 -134 -165 -165
-44 -22 -63 -25 -165 -25 -84 0 -131 5 -177 19 l-61 19 -51 -39 c-27 -22 -50
-42 -51 -45 0 -12 159 -60 230 -68 171 -22 340 31 458 142 70 67 99 118 118
208 35 165 -27 352 -164 501 -174 187 -384 285 -664 310 -71 6 -128 15 -128
19 0 4 -13 17 -29 28 -38 27 -98 35 -137 17z"/>
<path d="M217 948 c-239 -209 -284 -549 -100 -748 99 -107 237 -156 413 -147
159 8 335 68 467 158 106 73 227 205 293 321 22 41 38 58 52 58 30 0 84 63 92
105 10 49 -23 116 -68 140 -53 29 -122 16 -163 -29 -28 -30 -33 -43 -33 -84 0
-27 6 -57 15 -68 23 -30 18 -46 -34 -120 -114 -162 -314 -302 -501 -350 -143
-37 -319 -15 -407 52 -129 98 -169 286 -94 439 19 39 60 96 98 136 l65 68 -13
56 c-7 31 -15 58 -19 60 -3 2 -32 -19 -63 -47z"/>
</g>
</svg>
